<svg xmlns="http://www.w3.org/2000/svg" viewBox="0 0 960 480" width="960" height="480">
<g id="counties">
  <path id="Alamance" data-name="Alamance" d="M 546.90,172.36 L 547.96,206.18 L 540.61,210.42 L 516.89,210.51 L 516.94,203.21 L 516.98,202.89 L 517.96,158.85 L 517.97,158.84 L 517.99,157.91 L 518.91,157.75 L 535.67,158.20 L 540.93,158.34 L 547.17,158.53 L 546.90,172.36 Z" />
  <path id="Alleghany" data-name="Alleghany" d="M 324.85,115.58 L 329.70,115.54 L 355.75,116.58 L 356.07,116.58 L 368.04,117.07 L 368.21,117.09 L 372.72,117.26 L 365.00,131.40 L 365.80,138.05 L 360.87,141.99 L 352.25,133.01 L 335.43,142.76 L 324.85,115.58 Z" />
  <path id="Bladen" data-name="Bladen" d="M 653.29,397.92 L 644.71,402.16 L 633.15,400.89 L 608.63,388.87 L 588.05,387.16 L 595.02,360.34 L 584.91,341.45 L 628.02,338.63 L 653.48,377.90 L 661.76,389.42 L 653.29,397.92 Z" />
  <path id="Buncombe" data-name="Buncombe" d="M 238.33,251.48 L 227.95,259.52 L 195.77,264.02 L 184.94,260.34 L 177.31,265.04 L 171.38,258.92 L 174.94,246.42 L 162.53,231.96 L 170.67,230.99 L 201.68,215.73 L 212.90,213.80 L 219.33,214.77 L 227.05,228.55 L 225.41,243.24 L 238.33,251.48 Z" />
  <path id="Caldwell" data-name="Caldwell" d="M 326.86,216.61 L 325.58,216.92 L 324.58,218.69 L 324.78,220.18 L 323.70,220.32 L 303.35,219.09 L 276.71,195.11 L 284.25,181.51 L 276.24,175.70 L 304.46,174.94 L 327.48,190.63 L 326.86,216.61 Z" />
  <path id="Dare" data-name="Dare" d="M 918.71,294.09 L 919.61,293.64 L 920.78,293.47 L 922.50,292.82 L 923.46,292.23 L 924.52,291.29 L 925.00,291.05 L 925.74,289.99 L 926.10,289.76 L 926.33,289.76 L 927.02,290.35 L 928.17,290.46 L 930.67,289.64 L 931.79,289.04 L 933.38,287.68 L 935.12,286.73 L 935.19,286.11 L 935.23,285.38 L 935.34,285.01 L 936.56,285.42 L 936.93,285.74 L 939.15,285.47 L 941.83,284.58 L 942.50,282.58 L 943.08,278.69 L 943.66,276.34 L 944.28,272.89 L 944.91,269.74 L 945.58,264.92 L 946.16,261.03 L 946.93,257.03 L 946.83,255.38 L 946.72,253.99 L 946.94,251.73 L 947.50,250.09 L 947.89,248.20 L 947.89,242.20 L 947.60,239.14 L 946.93,235.84 L 945.76,233.51 L 944.84,231.65 L 943.95,226.31 L 943.99,225.18 L 942.07,219.58 L 942.55,219.22 L 943.26,219.50 L 945.36,223.56 L 946.03,225.43 L 947.83,231.90 L 950.00,242.55 L 949.86,244.54 L 949.60,248.14 L 948.66,257.74 L 947.02,269.16 L 945.39,278.46 L 942.87,289.64 L 942.05,290.68 L 940.87,290.35 L 939.23,289.88 L 937.12,289.99 L 933.94,290.46 L 931.25,291.41 L 927.31,292.94 L 921.34,295.29 L 919.17,295.96 L 918.27,296.23 L 917.02,296.59 L 914.90,297.64 L 909.51,300.35 L 901.82,304.47 L 898.45,306.36 L 896.43,308.00 L 894.41,309.42 L 892.43,311.27 L 891.20,311.97 L 891.01,311.52 L 891.15,311.06 L 892.49,309.06 L 893.45,308.00 L 893.74,306.90 L 893.59,305.91 L 893.74,305.05 L 894.29,304.42 L 895.40,304.28 L 896.15,304.71 L 897.40,304.47 L 900.67,302.47 L 902.11,301.53 L 903.84,300.47 L 909.61,297.64 L 911.77,297.04 L 912.43,296.82 L 913.65,296.23 L 914.52,295.53 L 915.32,294.78 L 918.65,294.11 L 918.71,294.09 Z M 916.63,160.13 L 916.72,160.40 L 918.08,163.61 L 920.33,170.16 L 922.47,175.43 L 924.75,180.12 L 928.81,187.53 L 938.22,207.93 L 940.07,213.27 L 941.51,216.48 L 942.12,217.79 L 941.76,218.73 L 941.03,218.78 L 940.67,217.79 L 939.90,216.23 L 938.59,214.45 L 937.87,212.40 L 936.19,210.31 L 934.88,207.41 L 932.98,204.54 L 933.21,202.39 L 933.15,201.32 L 932.88,199.88 L 931.70,197.78 L 929.83,194.63 L 927.76,192.99 L 927.40,192.10 L 926.65,190.97 L 921.90,189.78 L 921.54,188.82 L 921.59,187.45 L 922.07,185.98 L 922.01,185.33 L 921.56,184.92 L 920.48,184.89 L 920.11,184.10 L 920.00,182.98 L 920.22,181.51 L 920.20,180.41 L 919.08,174.47 L 919.05,173.15 L 918.87,171.90 L 918.50,170.20 L 916.37,164.08 L 915.53,162.15 L 914.51,160.79 L 914.40,160.67 L 916.63,160.13 Z M 927.03,199.40 L 928.70,200.63 L 928.34,201.07 L 928.44,202.32 L 929.34,202.56 L 929.87,202.26 L 930.23,202.41 L 932.08,205.35 L 933.23,208.83 L 932.92,209.97 L 933.49,214.11 L 932.84,214.95 L 932.44,214.93 L 930.88,213.73 L 927.81,213.09 L 927.05,212.23 L 928.64,211.13 L 928.59,208.03 L 928.29,207.08 L 927.29,205.45 L 926.38,205.24 L 924.66,202.95 L 924.74,201.92 L 924.18,201.16 L 921.89,199.85 L 921.52,198.80 L 921.57,198.51 L 922.47,198.01 L 923.84,198.05 L 925.35,198.37 L 925.86,198.88 L 927.03,199.40 Z M 892.66,202.71 L 894.94,203.53 L 896.17,203.26 L 896.56,202.98 L 898.13,200.52 L 899.58,199.50 L 900.02,199.43 L 900.30,199.02 L 900.36,197.93 L 899.19,196.56 L 898.57,196.35 L 898.24,195.94 L 898.18,195.40 L 899.13,194.71 L 903.26,193.14 L 905.38,192.94 L 907.39,193.01 L 908.51,193.28 L 912.81,195.47 L 913.26,196.15 L 913.70,197.38 L 915.66,198.54 L 915.66,199.50 L 916.05,200.80 L 917.11,202.98 L 918.90,205.99 L 918.79,206.88 L 919.29,209.34 L 920.74,211.05 L 921.52,213.20 L 921.58,214.67 L 920.95,217.36 L 920.35,218.96 L 920.23,219.91 L 920.65,220.35 L 921.78,223.56 L 922.38,227.28 L 922.80,228.08 L 923.04,229.32 L 922.98,229.91 L 920.00,232.75 L 919.94,234.94 L 920.47,237.13 L 921.25,238.37 L 921.25,238.74 L 919.40,240.78 L 917.73,241.65 L 916.12,243.11 L 916.42,244.79 L 914.09,245.45 L 909.86,245.89 L 908.31,244.87 L 907.48,243.84 L 906.39,244.35 L 903.07,233.15 L 887.71,233.53 L 892.66,202.71 Z" />
  <path id="Davidson" data-name="Davidson" d="M 426.43,193.66 L 440.06,190.63 L 445.68,190.59 L 445.69,186.71 L 452.48,186.72 L 453.78,186.96 L 463.78,188.81 L 463.53,195.84 L 463.51,195.95 L 463.42,198.59 L 463.41,200.48 L 463.39,200.98 L 461.28,254.36 L 448.99,254.53 L 446.29,244.65 L 433.73,232.31 L 433.13,226.66 L 432.36,226.35 L 429.14,227.02 L 426.82,226.24 L 424.47,226.21 L 419.70,223.57 L 419.15,212.57 L 429.58,203.71 L 426.43,193.66 Z" />
  <path id="Forsyth" data-name="Forsyth" d="M 453.78,186.96 L 452.48,186.72 L 445.69,186.71 L 445.68,190.59 L 440.06,190.63 L 426.43,193.66 L 415.72,184.14 L 413.63,178.16 L 421.74,172.46 L 420.39,158.87 L 420.38,158.85 L 420.39,158.77 L 420.43,156.22 L 464.60,156.78 L 463.78,188.81 L 453.78,186.96 Z" />
  <path id="Guilford" data-name="Guilford" d="M 464.60,156.78 L 465.46,156.76 L 488.63,157.78 L 489.84,157.88 L 500.12,158.24 L 517.96,158.85 L 516.98,202.89 L 516.94,203.21 L 466.20,200.62 L 463.41,200.48 L 463.42,198.59 L 463.51,195.95 L 463.53,195.84 L 463.78,188.81 L 464.60,156.78 Z" />
  <path id="Hertford" data-name="Hertford" d="M 817.66,158.53 L 767.11,158.68 L 764.39,158.14 L 773.85,128.63 L 769.09,119.26 L 795.44,119.59 L 795.44,119.59 L 793.77,138.12 L 811.76,144.40 L 818.71,151.73 L 819.37,155.49 L 817.66,158.53 Z" />
  <path id="Jones" data-name="Jones" d="M 736.29,290.27 L 750.57,299.87 L 773.28,309.93 L 774.99,334.59 L 776.96,345.60 L 768.95,347.92 L 763.03,334.66 L 751.71,328.01 L 747.57,332.12 L 738.58,326.88 L 714.91,323.45 L 714.06,322.71 L 709.00,318.94 L 709.03,318.93 L 722.71,310.76 L 732.80,297.65 L 730.62,288.40 L 731.05,288.62 L 735.76,290.14 L 736.29,290.27 Z" />
  <path id="Martin" data-name="Martin" d="M 751.78,180.51 L 764.67,189.57 L 765.67,198.31 L 781.90,197.56 L 786.08,208.52 L 795.18,203.73 L 798.35,214.55 L 804.54,204.99 L 811.90,207.73 L 802.96,228.43 L 788.05,234.52 L 768.08,224.84 L 749.35,213.65 L 750.21,202.47 L 743.83,189.54 L 750.55,181.79 L 751.78,180.51 Z" />
  <path id="Nash" data-name="Nash" d="M 689.43,211.40 L 688.13,212.06 L 687.76,212.23 L 660.11,225.18 L 653.44,213.84 L 662.22,195.86 L 679.78,163.87 L 692.45,171.51 L 712.52,170.32 L 704.43,190.35 L 704.05,192.18 L 700.72,201.96 L 699.32,205.99 L 698.67,207.42 L 689.43,211.40 Z" />
  <path id="Pender" data-name="Pender" d="M 731.60,392.63 L 727.47,395.65 L 724.78,397.82 L 719.19,403.14 L 716.36,405.43 L 713.65,408.22 L 710.88,411.53 L 710.61,411.81 L 699.25,399.27 L 677.31,406.75 L 663.26,403.47 L 653.29,397.92 L 661.76,389.42 L 653.48,377.90 L 668.47,356.09 L 714.36,356.26 L 725.40,387.67 L 731.60,392.63 Z" />
  <path id="Randolph" data-name="Randolph" d="M 463.39,200.98 L 463.41,200.48 L 466.20,200.62 L 516.94,203.21 L 516.89,210.51 L 515.47,253.13 L 492.83,253.60 L 461.28,254.36 L 463.39,200.98 Z" />
  <path id="Scotland" data-name="Scotland" d="M 525.45,367.97 L 524.71,367.34 L 524.41,367.10 L 523.59,366.13 L 522.43,364.94 L 519.37,361.89 L 519.24,361.76 L 515.62,358.12 L 514.85,357.39 L 507.44,350.01 L 507.16,349.72 L 501.45,345.33 L 501.22,345.32 L 500.93,345.32 L 514.84,331.63 L 513.69,321.04 L 525.72,314.40 L 536.85,327.06 L 537.39,340.97 L 536.32,353.35 L 535.79,354.07 L 525.45,367.97 Z" />
  <path id="Stanly" data-name="Stanly" d="M 422.95,298.27 L 421.84,299.00 L 418.70,298.34 L 417.18,296.60 L 414.77,296.11 L 437.05,254.71 L 448.99,254.53 L 462.88,271.63 L 457.95,286.87 L 460.37,301.42 L 449.89,300.79 L 438.98,294.54 L 422.95,298.27 Z" />
  <path id="Vance" data-name="Vance" d="M 627.82,167.44 L 626.53,166.41 L 626.36,158.93 L 626.25,155.46 L 626.32,149.98 L 626.25,134.27 L 632.01,119.76 L 633.69,119.73 L 634.20,119.74 L 646.13,119.59 L 649.97,143.66 L 647.92,155.63 L 635.68,168.87 L 627.82,167.44 Z" />
  <path id="Wayne" data-name="Wayne" d="M 701.10,272.00 L 698.40,289.69 L 698.06,296.92 L 691.82,300.97 L 675.85,294.97 L 663.13,295.42 L 648.17,282.86 L 664.23,274.38 L 664.05,265.78 L 673.63,244.00 L 699.20,243.99 L 699.11,255.26 L 698.91,258.10 L 698.83,264.03 L 699.74,266.01 L 701.10,267.10 L 701.69,270.35 L 701.40,271.58 L 701.13,271.94 L 701.10,272.00 Z" />
  <path id="Yadkin" data-name="Yadkin" d="M 415.72,184.14 L 394.85,183.55 L 374.80,182.95 L 375.75,159.50 L 399.13,157.40 L 410.30,153.15 L 420.39,158.87 L 421.74,172.46 L 413.63,178.16 L 415.72,184.14 Z" />
  <path id="Wilkes" data-name="Wilkes" d="M 311.69,158.99 L 322.13,154.10 L 324.72,144.01 L 335.43,142.76 L 352.25,133.01 L 360.87,141.99 L 365.80,138.05 L 376.22,147.80 L 375.75,159.50 L 374.80,182.95 L 359.25,184.24 L 342.06,185.39 L 327.48,190.63 L 304.46,174.94 L 313.99,164.25 L 311.69,158.99 Z" />
  <path id="Wilson" data-name="Wilson" d="M 660.11,225.18 L 687.76,212.23 L 688.13,212.06 L 689.43,211.40 L 698.67,207.42 L 706.83,212.53 L 716.40,232.07 L 713.48,234.30 L 712.24,235.33 L 706.61,240.06 L 701.51,243.91 L 701.04,244.26 L 700.73,244.16 L 700.47,243.92 L 699.98,243.61 L 699.77,243.69 L 699.32,244.00 L 699.20,243.99 L 673.63,244.00 L 667.16,241.71 L 660.11,225.18 Z" />
  <path id="Yancey" data-name="Yancey" d="M 207.15,189.23 L 212.04,180.72 L 220.38,186.25 L 235.11,188.13 L 242.13,212.97 L 235.34,224.41 L 227.05,228.55 L 219.33,214.77 L 212.90,213.80 L 202.60,192.99 L 204.56,191.28 L 204.56,191.27 L 207.15,189.23 Z" />
  <path id="Avery" data-name="Avery" d="M 258.19,201.67 L 252.63,197.70 L 247.71,176.46 L 247.75,176.46 L 253.43,173.28 L 260.48,160.57 L 263.36,155.80 L 264.94,152.91 L 265.89,162.09 L 276.24,175.70 L 284.25,181.51 L 276.71,195.11 L 266.90,190.17 L 262.23,195.45 L 260.18,197.76 L 261.08,199.69 L 258.19,201.67 Z" />
  <path id="Beaufort" data-name="Beaufort" d="M 766.34,265.61 L 766.48,264.69 L 766.25,263.56 L 767.31,262.75 L 767.45,260.83 L 768.09,260.71 L 767.93,258.46 L 777.25,246.78 L 768.10,237.52 L 768.08,224.84 L 788.05,234.52 L 802.96,228.43 L 824.92,228.45 L 832.76,241.97 L 842.98,247.76 L 829.05,252.50 L 834.59,269.41 L 831.06,269.75 L 828.32,269.75 L 826.77,270.91 L 825.97,272.16 L 825.93,272.23 L 826.89,275.14 L 828.43,276.15 L 825.51,289.46 L 802.93,291.95 L 797.61,287.09 L 766.34,265.61 Z" />
  <path id="Brunswick" data-name="Brunswick" d="M 687.13,459.08 L 686.15,461.20 L 685.05,465.68 L 684.70,468.86 L 683.60,470.00 L 679.76,468.16 L 679.42,467.81 L 679.48,466.97 L 678.50,464.32 L 670.36,462.01 L 665.95,461.21 L 661.63,460.94 L 651.19,461.19 L 639.76,462.54 L 626.49,467.27 L 623.09,469.14 L 611.49,457.08 L 621.42,441.72 L 622.65,430.89 L 627.99,428.16 L 635.66,431.74 L 640.79,423.20 L 653.49,421.73 L 663.26,403.47 L 677.31,406.75 L 685.61,419.65 L 687.13,459.08 Z" />
  <path id="Cabarrus" data-name="Cabarrus" d="M 392.04,272.90 L 389.43,270.59 L 388.26,268.73 L 387.31,268.04 L 385.18,254.33 L 390.17,254.36 L 390.19,254.16 L 395.36,254.24 L 398.62,254.30 L 399.38,254.30 L 399.53,254.32 L 399.86,254.32 L 408.72,254.69 L 437.05,254.71 L 414.77,296.11 L 414.66,295.95 L 410.00,292.95 L 397.75,285.18 L 397.60,285.08 L 394.80,274.98 L 393.22,273.89 L 392.04,272.90 Z" />
  <path id="Catawba" data-name="Catawba" d="M 323.70,220.32 L 324.78,220.18 L 324.58,218.69 L 325.58,216.92 L 326.86,216.61 L 347.21,212.59 L 350.70,219.18 L 370.31,239.29 L 366.55,248.88 L 366.36,248.84 L 305.64,246.16 L 323.70,220.32 Z" />
  <path id="Chatham" data-name="Chatham" d="M 584.37,207.33 L 584.03,210.57 L 577.46,232.29 L 574.95,240.78 L 583.62,244.31 L 577.63,252.31 L 561.81,238.45 L 537.30,252.76 L 537.16,252.79 L 515.47,253.13 L 516.89,210.51 L 540.61,210.42 L 547.96,206.18 L 572.65,207.94 L 584.37,207.33 Z" />
  <path id="Cherokee" data-name="Cherokee" d="M 10.00,321.50 L 11.41,307.96 L 11.43,307.90 L 13.14,293.17 L 13.36,290.72 L 19.98,285.22 L 20.41,285.07 L 21.67,285.46 L 22.62,286.80 L 30.89,287.57 L 31.29,287.46 L 31.91,287.49 L 31.94,287.58 L 33.80,287.88 L 38.23,285.18 L 41.06,282.22 L 48.51,291.84 L 60.61,286.84 L 75.69,287.75 L 71.92,299.76 L 59.29,302.20 L 43.56,321.63 L 41.87,321.63 L 40.96,321.64 L 30.41,321.62 L 30.40,321.62 L 10.00,321.50 Z" />
  <path id="Chowan" data-name="Chowan" d="M 848.91,180.40 L 848.79,180.81 L 847.95,182.31 L 845.61,184.63 L 844.72,185.11 L 843.93,186.55 L 843.88,187.02 L 840.42,187.85 L 838.04,189.45 L 834.53,188.90 L 832.85,188.90 L 831.51,189.38 L 831.01,189.25 L 830.06,188.15 L 828.55,185.90 L 827.32,185.28 L 825.59,185.21 L 823.30,185.62 L 821.66,187.46 L 814.50,171.10 L 817.66,158.53 L 819.37,155.49 L 818.71,151.73 L 833.23,144.50 L 830.03,159.16 L 831.78,175.61 L 848.91,180.40 Z" />
  <path id="Columbus" data-name="Columbus" d="M 605.16,450.50 L 604.94,450.24 L 566.87,410.97 L 579.61,391.52 L 588.05,387.16 L 608.63,388.87 L 633.15,400.89 L 644.71,402.16 L 653.29,397.92 L 663.26,403.47 L 653.49,421.73 L 640.79,423.20 L 635.66,431.74 L 627.99,428.16 L 622.65,430.89 L 621.42,441.72 L 611.49,457.08 L 605.16,450.50 Z" />
  <path id="Davie" data-name="Davie" d="M 415.72,184.14 L 426.43,193.66 L 429.58,203.71 L 419.15,212.57 L 419.70,223.57 L 401.36,210.20 L 393.31,209.28 L 394.85,183.55 L 415.72,184.14 Z" />
  <path id="Duplin" data-name="Duplin" d="M 668.47,356.09 L 659.22,354.10 L 664.88,332.66 L 663.00,296.74 L 663.13,295.42 L 675.85,294.97 L 691.82,300.97 L 698.06,296.92 L 704.97,301.11 L 707.24,310.74 L 707.43,317.07 L 708.09,317.84 L 709.03,318.93 L 709.00,318.94 L 714.06,322.71 L 714.91,323.45 L 715.32,344.45 L 714.80,347.63 L 714.36,356.26 L 668.47,356.09 Z" />
  <path id="Edgecombe" data-name="Edgecombe" d="M 700.72,201.96 L 704.05,192.18 L 704.43,190.35 L 712.52,170.32 L 729.44,177.98 L 730.66,185.29 L 743.83,189.54 L 750.21,202.47 L 749.35,213.65 L 745.15,211.87 L 731.76,221.23 L 729.44,222.62 L 716.40,232.07 L 706.83,212.53 L 698.67,207.42 L 699.32,205.99 L 700.72,201.96 Z" />
  <path id="Franklin" data-name="Franklin" d="M 627.82,167.44 L 635.68,168.87 L 647.92,155.63 L 666.39,158.19 L 679.78,163.87 L 662.22,195.86 L 653.44,213.84 L 647.89,203.61 L 622.52,187.35 L 622.70,179.71 L 627.82,167.44 Z" />
  <path id="Gaston" data-name="Gaston" d="M 357.71,300.74 L 352.74,300.19 L 336.92,299.23 L 336.68,299.22 L 333.76,299.08 L 327.52,298.79 L 328.23,286.22 L 323.61,279.60 L 313.89,265.53 L 330.45,266.18 L 367.04,267.96 L 361.36,288.10 L 360.83,291.36 L 361.65,292.70 L 361.77,295.36 L 361.69,299.67 L 357.77,301.04 L 357.71,300.74 Z" />
  <path id="Graham" data-name="Graham" d="M 41.06,282.22 L 41.65,281.60 L 41.87,280.87 L 40.69,277.77 L 40.70,277.61 L 40.10,274.78 L 40.16,274.58 L 40.39,274.46 L 41.51,274.06 L 43.90,265.15 L 44.15,264.80 L 48.23,260.35 L 48.27,259.92 L 48.27,259.80 L 48.27,259.75 L 49.14,260.20 L 49.16,260.18 L 88.10,263.55 L 78.07,283.73 L 77.70,284.06 L 77.66,284.40 L 77.41,284.72 L 77.08,285.34 L 77.02,285.59 L 76.83,285.77 L 76.70,286.15 L 76.56,286.33 L 76.52,286.59 L 76.28,286.81 L 76.09,287.12 L 75.90,287.26 L 75.69,287.75 L 60.61,286.84 L 48.51,291.84 L 41.06,282.22 Z" />
  <path id="Granville" data-name="Granville" d="M 600.05,119.84 L 602.62,119.84 L 609.42,119.82 L 610.13,119.82 L 623.95,119.95 L 624.30,119.96 L 630.52,119.78 L 630.55,119.78 L 632.01,119.76 L 626.25,134.27 L 626.32,149.98 L 626.25,155.46 L 626.36,158.93 L 626.53,166.41 L 627.82,167.44 L 622.70,179.71 L 622.52,187.35 L 601.04,180.93 L 595.10,178.26 L 595.42,159.56 L 596.18,121.81 L 596.03,119.86 L 599.30,119.86 L 600.05,119.84 Z" />
  <path id="Halifax" data-name="Halifax" d="M 691.30,124.39 L 718.08,127.75 L 727.45,135.84 L 724.38,146.43 L 739.68,148.11 L 745.52,162.45 L 749.32,165.35 L 751.43,165.16 L 754.67,168.77 L 755.59,168.31 L 758.46,169.45 L 762.07,176.73 L 751.78,180.51 L 750.55,181.79 L 743.83,189.54 L 730.66,185.29 L 729.44,177.98 L 712.52,170.32 L 692.45,171.51 L 679.78,163.87 L 689.81,140.56 L 691.30,124.39 Z" />
  <path id="Haywood" data-name="Haywood" d="M 123.23,229.67 L 123.61,227.91 L 123.10,227.18 L 123.55,226.54 L 124.67,225.65 L 132.71,221.34 L 139.57,219.42 L 139.56,219.42 L 139.57,219.42 L 150.64,219.63 L 151.90,219.00 L 154.00,216.91 L 162.53,231.96 L 174.94,246.42 L 171.38,258.92 L 177.31,265.04 L 177.22,265.10 L 168.01,278.66 L 158.59,282.11 L 150.53,271.60 L 130.46,253.20 L 130.91,232.88 L 123.23,229.67 Z" />
  <path id="Hyde" data-name="Hyde" d="M 906.39,244.35 L 903.72,245.59 L 902.47,247.42 L 902.29,247.93 L 902.29,249.10 L 901.46,250.12 L 898.36,250.63 L 897.88,251.07 L 897.40,251.65 L 896.39,253.62 L 896.33,254.50 L 896.63,255.52 L 896.51,255.88 L 893.95,257.12 L 893.05,258.29 L 893.17,259.82 L 892.81,261.14 L 891.56,262.60 L 891.26,263.84 L 891.38,265.08 L 891.03,265.88 L 890.37,266.68 L 889.89,266.97 L 888.64,266.24 L 887.27,266.02 L 886.26,266.75 L 885.84,267.41 L 885.84,268.29 L 886.14,269.02 L 886.26,270.18 L 885.24,271.86 L 882.74,273.10 L 879.52,274.42 L 878.51,274.63 L 877.44,276.02 L 877.44,277.33 L 876.72,277.63 L 875.05,277.33 L 874.69,276.90 L 873.26,276.31 L 870.76,276.31 L 867.66,274.56 L 865.75,274.56 L 865.27,275.29 L 864.44,275.44 L 862.65,275.14 L 860.27,273.83 L 857.88,273.69 L 857.05,273.83 L 856.45,275.00 L 855.50,275.14 L 853.83,274.71 L 852.88,273.83 L 852.04,273.69 L 851.45,273.69 L 850.25,274.71 L 849.30,274.56 L 849.18,274.12 L 847.99,273.39 L 846.80,272.96 L 846.32,270.91 L 845.01,270.18 L 844.29,270.18 L 843.58,270.62 L 842.50,271.79 L 841.07,271.79 L 839.64,270.48 L 837.26,269.16 L 834.59,269.41 L 829.05,252.50 L 842.98,247.76 L 832.76,241.97 L 824.92,228.45 L 834.68,228.47 L 850.67,229.46 L 864.03,230.33 L 861.00,240.93 L 869.86,242.37 L 877.36,228.77 L 887.71,233.53 L 903.07,233.15 L 906.39,244.35 Z" />
  <path id="Jackson" data-name="Jackson" d="M 158.59,282.11 L 151.96,302.88 L 144.33,313.01 L 149.30,316.50 L 138.69,319.90 L 138.67,319.90 L 114.17,277.03 L 112.93,259.20 L 130.46,253.20 L 150.53,271.60 L 158.59,282.11 Z" />
  <path id="Lee" data-name="Lee" d="M 554.98,280.15 L 545.41,274.13 L 537.30,252.76 L 561.81,238.45 L 577.63,252.31 L 554.98,280.15 Z" />
  <path id="McDowell" data-name="McDowell" d="M 274.90,245.36 L 259.06,251.90 L 255.95,248.37 L 238.33,251.48 L 225.41,243.24 L 227.05,228.55 L 235.34,224.41 L 242.13,212.97 L 258.19,201.67 L 261.08,199.69 L 260.18,197.76 L 262.23,195.45 L 266.16,205.32 L 257.63,215.25 L 270.11,226.59 L 274.90,245.36 Z" />
  <path id="Madison" data-name="Madison" d="M 160.96,197.31 L 160.96,197.31 L 163.54,196.32 L 165.83,196.79 L 168.21,198.88 L 173.67,193.46 L 176.24,189.62 L 180.38,187.04 L 183.76,184.20 L 188.68,181.64 L 189.20,181.65 L 190.58,182.84 L 192.31,185.01 L 191.02,190.14 L 191.42,193.67 L 192.96,194.73 L 197.12,196.07 L 201.89,193.34 L 202.47,193.11 L 202.60,192.99 L 212.90,213.80 L 201.68,215.73 L 170.67,230.99 L 162.53,231.96 L 154.00,216.91 L 154.14,216.78 L 158.85,210.24 L 161.02,205.60 L 159.39,200.03 L 160.96,197.31 Z" />
  <path id="Mitchell" data-name="Mitchell" d="M 212.04,180.72 L 212.83,179.36 L 216.42,176.47 L 216.87,176.37 L 217.38,176.21 L 217.97,175.82 L 219.30,175.13 L 221.34,174.94 L 221.77,174.69 L 231.04,172.11 L 231.18,172.02 L 231.28,171.91 L 231.35,171.79 L 232.70,169.81 L 233.85,169.54 L 240.56,170.77 L 241.77,173.46 L 241.62,174.66 L 242.40,176.37 L 242.77,176.63 L 247.71,176.46 L 252.63,197.70 L 258.19,201.67 L 242.13,212.97 L 235.11,188.13 L 220.38,186.25 L 212.04,180.72 Z" />
  <path id="New_Hanover" data-name="New Hanover" d="M 687.13,459.08 L 685.61,419.65 L 677.31,406.75 L 699.25,399.27 L 710.61,411.81 L 708.04,414.43 L 705.51,417.93 L 698.59,428.70 L 697.26,431.54 L 694.23,439.53 L 693.80,439.99 L 693.40,440.99 L 689.44,453.48 L 688.12,456.92 L 687.13,459.08 Z" />
  <path id="Orange" data-name="Orange" d="M 546.90,172.36 L 547.17,158.53 L 558.12,158.75 L 579.64,159.14 L 572.65,207.94 L 547.96,206.18 L 546.90,172.36 Z" />
  <path id="Pasquotank" data-name="Pasquotank" d="M 840.47,123.91 L 868.07,141.93 L 869.62,151.48 L 887.60,166.41 L 887.12,166.64 L 885.86,167.66 L 885.67,168.04 L 885.65,168.73 L 886.24,170.04 L 886.31,170.80 L 885.78,171.52 L 884.99,171.99 L 882.78,172.56 L 873.61,174.16 L 873.06,174.40 L 872.39,175.08 L 861.86,161.24 L 852.81,156.58 L 844.47,141.11 L 840.47,129.35 L 840.47,123.91 Z" />
  <path id="Perquimans" data-name="Perquimans" d="M 844.47,141.11 L 852.81,156.58 L 861.86,161.24 L 872.39,175.08 L 872.36,175.11 L 872.19,175.46 L 872.26,176.27 L 869.62,177.80 L 867.27,177.39 L 864.48,176.57 L 862.14,176.57 L 860.91,177.05 L 860.35,178.14 L 858.28,179.16 L 857.39,179.30 L 856.83,178.96 L 854.93,178.96 L 849.02,180.05 L 848.91,180.40 L 831.78,175.61 L 830.03,159.16 L 833.23,144.50 L 833.54,144.07 L 835.41,143.81 L 844.47,141.11 Z" />
  <path id="Pitt" data-name="Pitt" d="M 736.68,265.46 L 736.42,264.76 L 736.05,264.61 L 732.52,252.55 L 712.24,235.33 L 713.48,234.30 L 716.40,232.07 L 729.44,222.62 L 731.76,221.23 L 745.15,211.87 L 749.35,213.65 L 768.08,224.84 L 768.10,237.52 L 777.25,246.78 L 767.93,258.46 L 768.09,260.71 L 767.45,260.83 L 767.31,262.75 L 766.25,263.56 L 766.48,264.69 L 766.34,265.61 L 755.16,270.78 L 754.60,271.42 L 748.99,277.42 L 748.63,277.31 L 748.23,276.92 L 747.77,276.69 L 746.80,276.66 L 745.85,276.46 L 745.07,275.86 L 741.24,274.51 L 736.68,265.46 Z" />
  <path id="Richmond" data-name="Richmond" d="M 495.50,345.23 L 495.42,345.22 L 492.46,345.19 L 492.38,345.19 L 476.04,345.11 L 484.28,333.07 L 481.55,315.07 L 476.01,304.72 L 468.44,308.91 L 460.37,301.42 L 484.09,296.19 L 509.27,298.75 L 513.40,310.94 L 525.72,314.40 L 513.69,321.04 L 514.84,331.63 L 500.93,345.32 L 495.50,345.23 Z" />
  <path id="Rowan" data-name="Rowan" d="M 388.06,240.00 L 386.54,232.38 L 393.31,209.28 L 401.36,210.20 L 419.70,223.57 L 424.47,226.21 L 426.82,226.24 L 429.14,227.02 L 432.36,226.35 L 433.13,226.66 L 433.73,232.31 L 446.29,244.65 L 448.99,254.53 L 437.05,254.71 L 408.72,254.69 L 399.86,254.32 L 399.53,254.32 L 399.38,254.30 L 398.62,254.30 L 395.36,254.24 L 390.19,254.16 L 388.06,240.00 Z" />
  <path id="Sampson" data-name="Sampson" d="M 639.00,285.90 L 645.21,283.72 L 648.17,282.86 L 663.13,295.42 L 663.00,296.74 L 664.88,332.66 L 659.22,354.10 L 668.47,356.09 L 653.48,377.90 L 628.02,338.63 L 627.94,338.47 L 628.00,338.32 L 627.81,338.24 L 627.56,338.26 L 627.22,337.97 L 627.15,337.57 L 626.81,337.50 L 626.71,337.31 L 626.20,337.14 L 626.04,336.97 L 626.03,336.44 L 625.89,336.39 L 625.86,336.15 L 625.96,336.10 L 626.08,335.46 L 625.92,335.46 L 625.98,335.33 L 625.79,335.32 L 625.79,335.19 L 625.54,335.08 L 625.36,335.10 L 625.40,335.23 L 625.20,335.22 L 625.04,335.12 L 611.80,320.67 L 609.41,307.93 L 615.03,288.10 L 623.07,279.09 L 628.36,285.81 L 639.00,285.90 Z" />
  <path id="Stokes" data-name="Stokes" d="M 462.70,119.74 L 465.47,119.76 L 464.84,145.41 L 464.60,156.78 L 420.43,156.22 L 421.69,118.70 L 422.48,118.75 L 422.59,118.76 L 444.16,119.58 L 444.46,119.60 L 450.16,119.67 L 450.39,119.67 L 462.70,119.74 Z" />
  <path id="Transylvania" data-name="Transylvania" d="M 175.18,311.15 L 173.32,311.32 L 173.47,311.04 L 173.62,310.43 L 173.80,310.02 L 173.42,309.03 L 173.41,309.02 L 161.07,312.73 L 149.30,316.50 L 144.33,313.01 L 151.96,302.88 L 158.59,282.11 L 168.01,278.66 L 177.22,265.10 L 190.55,280.57 L 195.33,301.28 L 194.73,301.57 L 194.50,301.53 L 183.45,304.18 L 183.42,304.45 L 175.18,311.15 Z" />
  <path id="Wake" data-name="Wake" d="M 653.44,213.84 L 630.24,228.93 L 620.38,238.35 L 605.32,252.61 L 583.62,244.31 L 574.95,240.78 L 577.46,232.29 L 584.03,210.57 L 584.37,207.33 L 592.26,207.41 L 606.46,188.59 L 601.04,180.93 L 622.52,187.35 L 647.89,203.61 L 653.44,213.84 Z" />
  <path id="Washington" data-name="Washington" d="M 819.16,197.28 L 819.23,197.38 L 821.12,198.61 L 821.79,198.81 L 822.91,198.61 L 828.10,198.40 L 828.55,197.99 L 830.34,197.72 L 836.54,197.45 L 838.77,196.70 L 839.89,196.01 L 842.34,195.26 L 843.74,194.03 L 850.36,192.22 L 851.25,192.77 L 852.09,193.86 L 852.14,195.02 L 853.86,197.36 L 855.11,208.18 L 849.53,218.09 L 850.67,229.46 L 834.68,228.47 L 824.92,228.45 L 802.96,228.43 L 811.90,207.73 L 819.16,197.28 Z" />
  <path id="Alexander" data-name="Alexander" d="M 359.25,184.24 L 361.74,195.61 L 356.78,210.32 L 355.44,212.98 L 354.28,214.21 L 353.94,215.79 L 352.37,216.92 L 350.70,219.18 L 347.21,212.59 L 326.86,216.61 L 327.48,190.63 L 342.06,185.39 L 359.25,184.24 Z" />
  <path id="Anson" data-name="Anson" d="M 457.87,344.64 L 434.38,344.17 L 438.98,294.54 L 449.89,300.79 L 460.37,301.42 L 468.44,308.91 L 476.01,304.72 L 481.55,315.07 L 484.28,333.07 L 476.04,345.11 L 465.45,344.83 L 463.83,344.78 L 460.63,344.70 L 460.18,344.70 L 457.97,344.64 L 457.87,344.64 Z" />
  <path id="Ashe" data-name="Ashe" d="M 290.45,113.84 L 297.94,113.97 L 307.05,114.82 L 324.84,115.58 L 324.85,115.58 L 335.43,142.76 L 324.72,144.01 L 322.13,154.10 L 311.69,158.99 L 302.26,154.87 L 285.85,139.88 L 286.56,131.64 L 286.47,131.33 L 288.36,127.26 L 288.50,126.37 L 288.41,126.13 L 288.36,125.78 L 288.25,125.64 L 288.08,125.53 L 288.04,125.21 L 288.08,125.16 L 288.28,124.75 L 288.36,124.64 L 288.30,124.30 L 288.31,124.18 L 288.13,123.78 L 288.11,123.60 L 288.06,123.44 L 288.01,123.30 L 287.23,120.58 L 288.07,120.12 L 290.45,113.84 Z" />
  <path id="Caswell" data-name="Caswell" d="M 520.23,119.99 L 520.26,119.99 L 524.57,119.95 L 527.13,119.93 L 527.15,119.93 L 538.08,119.90 L 551.23,119.88 L 552.21,119.88 L 552.29,119.88 L 559.79,119.86 L 558.12,158.75 L 547.17,158.53 L 540.93,158.34 L 535.67,158.20 L 518.91,157.75 L 517.99,157.91 L 520.23,119.99 Z" />
  <path id="Cleveland" data-name="Cleveland" d="M 327.52,298.79 L 323.43,298.59 L 323.42,298.59 L 314.33,298.15 L 313.37,298.10 L 309.98,297.94 L 309.89,297.95 L 280.85,296.61 L 287.77,273.63 L 288.88,244.73 L 305.28,246.72 L 313.89,265.53 L 323.61,279.60 L 328.23,286.22 L 327.52,298.79 Z" />
  <path id="Durham" data-name="Durham" d="M 572.65,207.94 L 579.64,159.14 L 579.80,159.10 L 595.42,159.56 L 595.10,178.26 L 601.04,180.93 L 606.46,188.59 L 592.26,207.41 L 584.37,207.33 L 572.65,207.94 Z" />
  <path id="Gates" data-name="Gates" d="M 835.14,118.74 L 835.17,118.74 L 840.47,123.91 L 840.47,129.35 L 844.47,141.11 L 835.41,143.81 L 833.54,144.07 L 833.23,144.50 L 818.71,151.73 L 811.76,144.40 L 793.77,138.12 L 795.44,119.59 L 795.51,119.58 L 807.00,118.71 L 809.73,118.70 L 835.14,118.74 Z" />
  <path id="Harnett" data-name="Harnett" d="M 615.03,288.10 L 592.89,286.34 L 580.59,291.54 L 564.23,295.05 L 550.76,285.19 L 554.98,280.15 L 577.63,252.31 L 583.62,244.31 L 605.32,252.61 L 610.42,255.58 L 624.24,276.67 L 623.07,279.09 L 615.03,288.10 Z" />
  <path id="Iredell" data-name="Iredell" d="M 350.70,219.18 L 352.37,216.92 L 353.94,215.79 L 354.28,214.21 L 355.44,212.98 L 356.78,210.32 L 361.74,195.61 L 359.25,184.24 L 374.80,182.95 L 394.85,183.55 L 393.31,209.28 L 386.54,232.38 L 388.06,240.00 L 390.19,254.16 L 390.17,254.36 L 385.18,254.33 L 367.93,256.69 L 366.55,248.88 L 370.31,239.29 L 350.70,219.18 Z" />
  <path id="Lincoln" data-name="Lincoln" d="M 367.04,267.96 L 330.45,266.18 L 313.89,265.53 L 305.28,246.72 L 305.45,246.45 L 305.49,246.39 L 305.50,246.35 L 305.64,246.16 L 366.36,248.84 L 366.55,248.88 L 367.93,256.69 L 367.04,267.96 Z" />
  <path id="Montgomery" data-name="Montgomery" d="M 492.83,253.60 L 500.39,287.36 L 509.27,298.75 L 484.09,296.19 L 460.37,301.42 L 457.95,286.87 L 462.88,271.63 L 448.99,254.53 L 461.28,254.36 L 492.83,253.60 Z" />
  <path id="Onslow" data-name="Onslow" d="M 715.32,344.45 L 714.91,323.45 L 738.58,326.88 L 747.57,332.12 L 751.71,328.01 L 763.03,334.66 L 768.95,347.92 L 773.16,351.55 L 774.57,366.82 L 772.02,367.65 L 768.54,369.07 L 764.35,371.27 L 760.98,373.55 L 752.33,380.29 L 737.44,388.62 L 734.38,390.61 L 731.60,392.63 L 725.40,387.67 L 714.36,356.26 L 714.80,347.63 L 715.32,344.45 Z" />
  <path id="Person" data-name="Person" d="M 596.03,119.86 L 596.18,121.81 L 595.42,159.56 L 579.80,159.10 L 579.64,159.14 L 558.12,158.75 L 559.79,119.86 L 561.05,119.88 L 561.19,119.88 L 577.41,119.81 L 577.54,119.80 L 580.55,119.81 L 580.57,119.81 L 583.39,119.83 L 583.49,119.83 L 596.03,119.86 Z" />
  <path id="Rockingham" data-name="Rockingham" d="M 465.47,119.76 L 471.81,119.76 L 471.87,119.76 L 476.82,119.78 L 498.61,119.84 L 503.65,119.85 L 503.70,119.85 L 520.23,119.99 L 517.99,157.91 L 517.97,158.84 L 517.96,158.85 L 500.12,158.24 L 489.84,157.88 L 488.63,157.78 L 465.46,156.76 L 464.60,156.78 L 464.84,145.41 L 465.47,119.76 Z" />
  <path id="Swain" data-name="Swain" d="M 79.89,246.12 L 82.27,246.51 L 97.34,246.92 L 98.70,246.24 L 99.22,245.14 L 99.45,244.81 L 99.39,244.28 L 102.92,240.58 L 111.28,237.08 L 118.68,234.61 L 123.23,229.67 L 130.91,232.88 L 130.46,253.20 L 112.93,259.20 L 114.17,277.03 L 78.07,283.73 L 88.10,263.55 L 49.16,260.18 L 51.15,258.67 L 56.86,252.66 L 69.92,246.83 L 78.47,245.97 L 79.89,246.12 Z" />
  <path id="Union" data-name="Union" d="M 408.80,343.69 L 408.80,343.69 L 402.48,343.60 L 401.97,343.59 L 401.97,343.60 L 400.00,343.55 L 399.79,343.55 L 386.51,343.41 L 385.88,343.40 L 383.87,342.68 L 385.42,328.34 L 382.84,324.82 L 382.80,324.77 L 379.23,319.80 L 386.66,315.55 L 410.00,292.95 L 414.66,295.95 L 414.77,296.11 L 417.18,296.60 L 418.70,298.34 L 421.84,299.00 L 422.95,298.27 L 438.98,294.54 L 434.38,344.17 L 425.96,344.00 L 424.14,343.95 L 423.99,343.93 L 423.87,343.94 L 423.20,343.91 L 422.25,343.89 L 420.77,343.84 L 420.46,343.83 L 416.86,343.79 L 408.80,343.69 Z" />
  <path id="Currituck" data-name="Currituck" d="M 879.61,118.70 L 888.91,118.70 L 889.75,118.71 L 897.08,118.71 L 897.28,118.71 L 897.53,118.71 L 897.59,118.71 L 900.86,118.70 L 901.98,118.70 L 902.24,118.70 L 902.69,118.70 L 902.83,118.70 L 903.82,118.69 L 903.91,118.70 L 904.05,118.69 L 904.62,118.69 L 904.69,118.69 L 905.25,118.69 L 905.35,118.69 L 906.69,118.69 L 907.77,125.26 L 910.09,135.32 L 911.82,143.76 L 914.18,152.49 L 916.63,160.13 L 914.40,160.67 L 913.96,160.22 L 913.41,159.57 L 912.57,158.51 L 912.55,158.03 L 912.94,156.49 L 912.27,153.14 L 911.37,152.32 L 910.20,152.25 L 909.78,151.95 L 909.00,150.51 L 909.42,147.54 L 910.42,146.17 L 910.45,145.21 L 909.96,143.04 L 909.24,142.02 L 908.79,141.88 L 908.34,140.92 L 908.23,140.24 L 908.34,136.21 L 907.00,134.29 L 905.27,133.61 L 904.44,132.86 L 904.10,130.40 L 903.21,127.60 L 902.43,127.12 L 901.81,127.05 L 901.36,127.12 L 900.64,127.60 L 900.30,127.51 L 899.44,126.50 L 896.83,125.92 L 895.50,125.97 L 892.20,124.47 L 890.55,124.82 L 890.09,125.17 L 889.49,126.01 L 889.20,127.55 L 890.45,130.65 L 891.28,132.10 L 892.18,132.82 L 893.67,133.48 L 894.71,133.65 L 896.59,136.02 L 898.88,135.81 L 899.33,135.26 L 899.73,134.67 L 900.19,134.55 L 900.69,134.91 L 901.46,139.68 L 901.40,140.44 L 900.70,142.44 L 900.72,143.21 L 901.31,144.28 L 901.57,144.44 L 903.70,148.69 L 904.45,152.09 L 905.09,153.23 L 906.09,153.48 L 906.92,153.23 L 907.38,153.76 L 907.25,155.60 L 906.66,157.41 L 907.00,159.61 L 907.58,161.28 L 908.62,162.07 L 909.73,164.20 L 909.43,165.02 L 909.57,167.19 L 911.27,169.63 L 911.41,171.24 L 912.38,172.42 L 913.76,175.55 L 914.69,179.50 L 914.44,180.87 L 913.83,180.75 L 909.98,178.16 L 908.74,176.94 L 906.61,173.66 L 906.77,171.83 L 906.66,170.56 L 906.40,170.12 L 905.85,169.74 L 904.53,169.38 L 898.06,153.15 L 887.21,143.47 L 880.49,143.77 L 875.77,134.84 L 859.38,118.71 L 879.61,118.70 Z" />
  <path id="Greene" data-name="Greene" d="M 698.91,258.10 L 699.11,255.26 L 699.20,243.99 L 699.32,244.00 L 699.77,243.69 L 699.98,243.61 L 700.47,243.92 L 700.73,244.16 L 701.04,244.26 L 701.51,243.91 L 706.61,240.06 L 712.24,235.33 L 732.52,252.55 L 736.05,264.61 L 716.45,274.21 L 714.36,274.85 L 712.12,270.59 L 708.19,271.33 L 707.02,271.55 L 704.06,272.27 L 701.10,272.00 L 701.13,271.94 L 701.40,271.58 L 701.69,270.35 L 701.10,267.10 L 699.74,266.01 L 698.83,264.03 L 698.91,258.10 Z" />
  <path id="Henderson" data-name="Henderson" d="M 218.88,293.18 L 215.52,292.67 L 205.76,297.22 L 201.43,298.83 L 201.39,298.89 L 199.43,299.40 L 199.35,299.34 L 195.33,301.28 L 190.55,280.57 L 177.22,265.10 L 177.31,265.04 L 184.94,260.34 L 195.77,264.02 L 227.95,259.52 L 226.60,262.10 L 227.59,268.03 L 228.52,268.98 L 219.55,282.87 L 218.88,293.18 Z" />
  <path id="Bertie" data-name="Bertie" d="M 819.16,197.28 L 811.90,207.73 L 804.54,204.99 L 798.35,214.55 L 795.18,203.73 L 786.08,208.52 L 781.90,197.56 L 765.67,198.31 L 764.67,189.57 L 751.78,180.51 L 762.07,176.73 L 758.46,169.45 L 755.59,168.31 L 764.39,158.14 L 767.11,158.68 L 817.66,158.53 L 814.50,171.10 L 821.66,187.46 L 821.35,187.81 L 819.95,188.90 L 820.06,190.13 L 820.51,191.23 L 819.95,192.39 L 818.83,193.62 L 818.33,194.78 L 818.61,196.42 L 819.16,197.28 Z" />
  <path id="Burke" data-name="Burke" d="M 274.90,245.36 L 270.11,226.59 L 257.63,215.25 L 266.16,205.32 L 262.23,195.45 L 266.90,190.17 L 276.71,195.11 L 303.35,219.09 L 323.70,220.32 L 305.64,246.16 L 305.50,246.35 L 305.49,246.39 L 305.45,246.45 L 305.28,246.72 L 288.88,244.73 L 274.90,245.36 Z" />
  <path id="Camden" data-name="Camden" d="M 840.47,118.74 L 859.37,118.71 L 859.38,118.71 L 875.77,134.84 L 880.49,143.77 L 887.21,143.47 L 898.06,153.15 L 904.53,169.38 L 902.67,168.87 L 901.07,168.78 L 900.58,168.95 L 899.06,168.70 L 893.10,167.07 L 890.79,165.99 L 890.58,165.74 L 889.22,165.63 L 887.60,166.41 L 869.62,151.48 L 868.07,141.93 L 840.47,123.91 L 835.17,118.74 L 840.47,118.74 Z" />
  <path id="Carteret" data-name="Carteret" d="M 776.96,345.60 L 792.98,342.24 L 819.09,336.98 L 823.21,328.17 L 817.16,322.34 L 824.23,317.43 L 824.50,318.34 L 825.93,320.67 L 830.22,321.11 L 832.49,320.24 L 835.35,319.94 L 839.29,319.07 L 840.00,318.48 L 840.48,317.75 L 840.60,315.57 L 841.67,313.23 L 842.27,310.90 L 842.87,310.22 L 843.44,310.08 L 846.38,312.48 L 846.72,313.63 L 846.79,315.98 L 847.47,319.81 L 849.50,321.65 L 850.33,323.04 L 850.63,323.22 L 857.38,323.77 L 857.98,323.08 L 857.64,321.70 L 855.45,317.83 L 854.32,316.63 L 853.95,315.94 L 853.95,315.47 L 855.23,315.70 L 858.81,317.32 L 861.44,318.75 L 862.01,319.26 L 861.97,320.36 L 861.74,320.74 L 861.43,321.04 L 861.18,321.73 L 861.14,323.08 L 861.76,324.02 L 863.37,325.07 L 863.44,325.99 L 863.14,327.79 L 862.46,328.20 L 859.56,331.66 L 858.66,333.27 L 857.19,335.30 L 855.72,336.59 L 853.53,336.50 L 852.59,337.19 L 852.33,337.84 L 850.67,338.76 L 850.14,338.76 L 848.94,340.60 L 848.49,342.63 L 848.49,344.20 L 849.84,345.16 L 851.20,345.24 L 851.88,344.94 L 853.01,343.74 L 854.14,342.82 L 856.40,340.42 L 858.36,338.02 L 863.53,333.33 L 867.81,329.61 L 871.92,324.83 L 875.61,321.15 L 880.73,315.52 L 882.69,313.68 L 885.18,310.17 L 885.71,309.99 L 887.97,310.91 L 888.49,311.55 L 888.78,312.34 L 884.85,316.04 L 878.03,321.57 L 867.87,332.27 L 859.69,339.17 L 851.57,347.96 L 844.82,357.07 L 840.19,363.88 L 837.00,369.92 L 835.75,373.41 L 833.71,369.85 L 833.86,368.26 L 834.22,367.93 L 834.33,366.01 L 831.14,364.11 L 826.97,362.51 L 824.40,361.85 L 822.31,360.82 L 820.86,359.83 L 819.01,359.92 L 815.49,359.37 L 810.92,359.35 L 805.90,359.76 L 796.48,361.17 L 787.57,362.89 L 783.24,363.98 L 774.57,366.82 L 773.16,351.55 L 768.95,347.92 L 776.96,345.60 Z" />
  <path id="Johnston" data-name="Johnston" d="M 639.00,285.90 L 628.36,285.81 L 623.07,279.09 L 624.24,276.67 L 610.42,255.58 L 605.32,252.61 L 620.38,238.35 L 630.24,228.93 L 653.44,213.84 L 660.11,225.18 L 667.16,241.71 L 673.63,244.00 L 664.05,265.78 L 664.23,274.38 L 648.17,282.86 L 645.21,283.72 L 639.00,285.90 Z" />
  <path id="Lenoir" data-name="Lenoir" d="M 707.24,310.74 L 704.97,301.11 L 698.06,296.92 L 698.40,289.69 L 701.10,272.00 L 704.06,272.27 L 707.02,271.55 L 708.19,271.33 L 712.12,270.59 L 714.36,274.85 L 716.45,274.21 L 736.05,264.61 L 736.42,264.76 L 736.68,265.46 L 741.24,274.51 L 745.07,275.86 L 736.29,290.27 L 735.76,290.14 L 731.05,288.62 L 730.62,288.40 L 732.80,297.65 L 722.71,310.76 L 709.03,318.93 L 708.09,317.84 L 707.43,317.07 L 707.24,310.74 Z" />
  <path id="Macon" data-name="Macon" d="M 114.17,277.03 L 138.67,319.90 L 98.96,320.81 L 80.22,299.20 L 71.92,299.76 L 75.69,287.75 L 75.90,287.26 L 76.09,287.12 L 76.28,286.81 L 76.52,286.59 L 76.56,286.33 L 76.70,286.15 L 76.83,285.77 L 77.02,285.59 L 77.08,285.34 L 77.41,284.72 L 77.66,284.40 L 77.70,284.06 L 78.07,283.73 L 114.17,277.03 Z" />
  <path id="Mecklenburg" data-name="Mecklenburg" d="M 372.23,310.05 L 372.22,310.03 L 369.21,306.06 L 366.78,307.97 L 357.91,314.20 L 356.21,311.95 L 356.15,310.50 L 356.24,308.82 L 356.79,307.50 L 357.37,306.94 L 358.47,306.60 L 358.86,305.84 L 357.77,301.04 L 361.69,299.67 L 361.77,295.36 L 361.65,292.70 L 360.83,291.36 L 361.36,288.10 L 367.04,267.96 L 367.93,256.69 L 385.18,254.33 L 387.31,268.04 L 388.26,268.73 L 389.43,270.59 L 392.04,272.90 L 393.22,273.89 L 394.80,274.98 L 397.60,285.08 L 397.75,285.18 L 410.00,292.95 L 386.66,315.55 L 379.23,319.80 L 372.23,310.05 Z" />
  <path id="Moore" data-name="Moore" d="M 509.27,298.75 L 500.39,287.36 L 492.83,253.60 L 515.47,253.13 L 537.16,252.79 L 537.30,252.76 L 545.41,274.13 L 554.98,280.15 L 550.76,285.19 L 564.23,295.05 L 564.03,295.55 L 563.95,296.19 L 564.20,296.93 L 564.06,297.39 L 550.04,292.65 L 538.87,298.99 L 525.72,314.40 L 513.40,310.94 L 509.27,298.75 Z" />
  <path id="Watauga" data-name="Watauga" d="M 285.32,146.00 L 285.85,139.88 L 302.26,154.87 L 311.69,158.99 L 313.99,164.25 L 304.46,174.94 L 276.24,175.70 L 265.89,162.09 L 264.94,152.91 L 266.00,150.98 L 271.63,146.40 L 277.38,143.70 L 278.13,143.39 L 278.56,144.97 L 281.18,146.22 L 283.00,146.39 L 284.78,145.89 L 285.32,146.00 Z" />
  <path id="Surry" data-name="Surry" d="M 379.50,117.60 L 379.53,117.60 L 379.59,117.60 L 389.45,117.27 L 395.45,117.30 L 403.44,117.73 L 421.69,118.70 L 420.43,156.22 L 420.39,158.77 L 420.38,158.85 L 420.39,158.87 L 410.30,153.15 L 399.13,157.40 L 375.75,159.50 L 376.22,147.80 L 365.80,138.05 L 365.00,131.40 L 372.72,117.26 L 372.73,117.26 L 379.50,117.60 Z" />
  <path id="Tyrrell" data-name="Tyrrell" d="M 887.71,233.53 L 877.36,228.77 L 869.86,242.37 L 861.00,240.93 L 864.03,230.33 L 850.67,229.46 L 849.53,218.09 L 855.11,208.18 L 853.86,197.36 L 854.10,197.69 L 856.50,197.55 L 858.90,197.07 L 863.70,193.72 L 869.90,191.74 L 873.86,191.06 L 882.65,191.09 L 883.78,191.50 L 886.01,191.09 L 890.03,193.96 L 891.03,195.33 L 891.09,195.74 L 890.48,198.75 L 891.37,201.34 L 892.10,202.51 L 892.66,202.71 L 887.71,233.53 Z" />
  <path id="Craven" data-name="Craven" d="M 773.28,309.93 L 750.57,299.87 L 736.29,290.27 L 745.07,275.86 L 745.85,276.46 L 746.80,276.66 L 747.77,276.69 L 748.23,276.92 L 748.63,277.31 L 748.99,277.42 L 754.60,271.42 L 755.16,270.78 L 766.34,265.61 L 797.61,287.09 L 787.92,299.77 L 793.43,306.26 L 790.00,314.72 L 797.51,322.37 L 797.85,322.56 L 803.57,325.27 L 817.16,322.34 L 823.21,328.17 L 819.09,336.98 L 792.98,342.24 L 776.96,345.60 L 774.99,334.59 L 773.28,309.93 Z" />
  <path id="Cumberland" data-name="Cumberland" d="M 615.03,288.10 L 609.41,307.93 L 611.80,320.67 L 625.04,335.12 L 625.20,335.22 L 625.40,335.23 L 625.36,335.10 L 625.54,335.08 L 625.79,335.19 L 625.79,335.32 L 625.98,335.33 L 625.92,335.46 L 626.08,335.46 L 625.96,336.10 L 625.86,336.15 L 625.89,336.39 L 626.03,336.44 L 626.04,336.97 L 626.20,337.14 L 626.71,337.31 L 626.81,337.50 L 627.15,337.57 L 627.22,337.97 L 627.56,338.26 L 627.81,338.24 L 628.00,338.32 L 627.94,338.47 L 628.02,338.63 L 584.91,341.45 L 570.74,326.02 L 570.63,325.80 L 570.56,325.76 L 570.51,325.59 L 565.60,315.76 L 564.06,297.39 L 564.20,296.93 L 563.95,296.19 L 564.03,295.55 L 564.23,295.05 L 580.59,291.54 L 592.89,286.34 L 615.03,288.10 Z" />
  <path id="Northampton" data-name="Northampton" d="M 705.18,119.47 L 755.05,119.47 L 760.05,119.47 L 769.09,119.26 L 773.85,128.63 L 764.39,158.14 L 755.59,168.31 L 754.67,168.77 L 751.43,165.16 L 749.32,165.35 L 745.52,162.45 L 739.68,148.11 L 724.38,146.43 L 727.45,135.84 L 718.08,127.75 L 691.30,124.39 L 691.20,122.92 L 691.11,119.48 L 692.96,119.47 L 693.71,119.47 L 705.18,119.47 Z" />
  <path id="Pamlico" data-name="Pamlico" d="M 803.57,325.27 L 797.85,322.56 L 797.51,322.37 L 790.00,314.72 L 793.43,306.26 L 787.92,299.77 L 797.61,287.09 L 802.93,291.95 L 825.51,289.46 L 828.43,276.15 L 828.67,276.31 L 830.22,276.75 L 833.80,276.90 L 834.40,277.33 L 839.52,278.21 L 841.43,279.23 L 842.50,281.71 L 842.98,284.05 L 842.98,286.09 L 841.91,288.42 L 841.31,288.72 L 840.60,289.74 L 840.48,291.34 L 840.12,292.36 L 839.05,293.09 L 837.26,294.99 L 835.71,297.33 L 835.35,298.35 L 835.71,300.54 L 835.71,301.56 L 834.64,304.04 L 833.44,304.91 L 833.09,305.94 L 832.25,307.39 L 831.54,307.98 L 830.34,307.98 L 829.75,309.15 L 829.63,310.17 L 828.91,311.19 L 827.48,312.06 L 826.53,312.06 L 825.58,312.65 L 824.74,313.38 L 824.03,314.54 L 824.03,316.73 L 824.23,317.43 L 817.16,322.34 L 803.57,325.27 Z" />
  <path id="Polk" data-name="Polk" d="M 259.51,295.70 L 238.47,294.85 L 237.49,294.84 L 236.58,294.77 L 235.52,294.69 L 233.32,294.55 L 231.80,294.46 L 231.76,294.45 L 228.94,294.21 L 225.66,294.22 L 218.88,293.18 L 219.55,282.87 L 228.52,268.98 L 244.04,269.71 L 259.56,286.54 L 259.51,295.70 Z" />
  <path id="Robeson" data-name="Robeson" d="M 525.50,368.01 L 525.45,367.97 L 535.79,354.07 L 536.32,353.35 L 537.39,340.97 L 554.12,341.63 L 570.74,326.02 L 584.91,341.45 L 595.02,360.34 L 588.05,387.16 L 579.61,391.52 L 566.87,410.97 L 559.23,403.10 L 558.36,402.20 L 554.19,397.92 L 554.05,397.75 L 553.32,397.02 L 540.14,383.01 L 539.97,382.79 L 539.28,382.07 L 536.42,379.02 L 526.69,369.19 L 525.66,368.16 L 525.50,368.01 Z" />
  <path id="Clay" data-name="Clay" d="M 98.96,320.81 L 91.93,320.97 L 84.42,321.03 L 78.75,321.67 L 50.88,321.62 L 50.86,321.62 L 43.56,321.63 L 59.29,302.20 L 71.92,299.76 L 80.22,299.20 L 98.96,320.81 Z" />
  <path id="Warren" data-name="Warren" d="M 675.58,119.54 L 676.30,119.54 L 676.35,119.54 L 691.11,119.48 L 691.20,122.92 L 691.30,124.39 L 689.81,140.56 L 679.78,163.87 L 666.39,158.19 L 647.92,155.63 L 649.97,143.66 L 646.13,119.59 L 654.32,119.52 L 654.45,119.51 L 666.34,119.58 L 666.38,119.59 L 675.58,119.54 Z" />
  <path id="Hoke" data-name="Hoke" d="M 565.60,315.76 L 570.51,325.59 L 570.56,325.76 L 570.63,325.80 L 570.74,326.02 L 554.12,341.63 L 537.39,340.97 L 536.85,327.06 L 525.72,314.40 L 538.87,298.99 L 550.04,292.65 L 564.06,297.39 L 565.60,315.76 Z" />
  <path id="Rutherford" data-name="Rutherford" d="M 269.57,296.10 L 259.51,295.70 L 259.56,286.54 L 244.04,269.71 L 228.52,268.98 L 227.59,268.03 L 226.60,262.10 L 227.95,259.52 L 238.33,251.48 L 255.95,248.37 L 259.06,251.90 L 274.90,245.36 L 288.88,244.73 L 287.77,273.63 L 280.85,296.61 L 271.33,296.18 L 269.57,296.10 Z" />
</g>
</svg>